<svg id='Love_Letter_24' width='24' height='24' viewBox='0 0 24 24' xmlns='http://www.w3.org/2000/svg' xmlns:xlink='http://www.w3.org/1999/xlink'><rect width='24' height='24' stroke='none' fill='#000000' opacity='0'/>


<g transform="matrix(0.42 0 0 0.42 12 12)" >
<g style="" >
<g transform="matrix(1 0 0 1 13.17 0.12)" >
<linearGradient id="SVGID_eLiPB0jyxGhmUZCqmxXJUa_2" gradientUnits="userSpaceOnUse" gradientTransform="matrix(1 0 0 1 -37.17 -24.12)" x1="28.503" y1="24.125" x2="50.299" y2="24.125">
<stop offset="0%" style="stop-color:rgb(255,255,255);stop-opacity: 1"/>
<stop offset="6.7%" style="stop-color:rgb(250,250,250);stop-opacity: 1"/>
<stop offset="36.1%" style="stop-color:rgb(235,235,235);stop-opacity: 1"/>
<stop offset="59.8%" style="stop-color:rgb(230,230,230);stop-opacity: 1"/>
<stop offset="69.3%" style="stop-color:rgb(224,224,224);stop-opacity: 1"/>
<stop offset="81.39999999999999%" style="stop-color:rgb(209,209,209);stop-opacity: 1"/>
<stop offset="94.8%" style="stop-color:rgb(183,183,183);stop-opacity: 1"/>
<stop offset="99.9%" style="stop-color:rgb(171,171,171);stop-opacity: 1"/>
</linearGradient>
<rect style="stroke: none; stroke-width: 1; stroke-dasharray: none; stroke-linecap: butt; stroke-dashoffset: 0; stroke-linejoin: miter; stroke-miterlimit: 4; fill: url(#SVGID_eLiPB0jyxGhmUZCqmxXJUa_2); fill-rule: nonzero; opacity: 1;" x="-8.8335" y="-14.7845" rx="0" ry="0" width="17.667" height="29.569" />
</g>
<g transform="matrix(1 0 0 1 -13.17 0.27)" >
<linearGradient id="SVGID_eLiPB0jyxGhmUZCqmxXJUb_3" gradientUnits="userSpaceOnUse" gradientTransform="matrix(1 0 0 1 -10.83 -24.27)" x1="21.468" y1="24.274" x2="-2.32" y2="24.274">
<stop offset="0%" style="stop-color:rgb(255,255,255);stop-opacity: 1"/>
<stop offset="6.7%" style="stop-color:rgb(250,250,250);stop-opacity: 1"/>
<stop offset="36.1%" style="stop-color:rgb(235,235,235);stop-opacity: 1"/>
<stop offset="59.8%" style="stop-color:rgb(230,230,230);stop-opacity: 1"/>
<stop offset="69.3%" style="stop-color:rgb(224,224,224);stop-opacity: 1"/>
<stop offset="81.39999999999999%" style="stop-color:rgb(209,209,209);stop-opacity: 1"/>
<stop offset="94.8%" style="stop-color:rgb(183,183,183);stop-opacity: 1"/>
<stop offset="99.9%" style="stop-color:rgb(171,171,171);stop-opacity: 1"/>
</linearGradient>
<rect style="stroke: none; stroke-width: 1; stroke-dasharray: none; stroke-linecap: butt; stroke-dashoffset: 0; stroke-linejoin: miter; stroke-miterlimit: 4; fill: url(#SVGID_eLiPB0jyxGhmUZCqmxXJUb_3); fill-rule: nonzero; opacity: 1;" x="-8.8335" y="-14.6355" rx="0" ry="0" width="17.667" height="29.271" />
</g>
<g transform="matrix(1 0 0 1 0 3.33)" >
<path style="stroke: none; stroke-width: 1; stroke-dasharray: none; stroke-linecap: butt; stroke-dashoffset: 0; stroke-linejoin: miter; stroke-miterlimit: 4; fill: rgb(230,230,230); fill-rule: nonzero; opacity: 0.02;" transform=" translate(-24, -27.33)" d="M 28.997 21.006 C 28.997 21.006 24.820999999999998 19.014 24 19.014 C 23.179000000000002 19.014 19.001 21.008 19.001 21.008 C 19.001 21.008 7.617 29.882 2 34.567 L 2 35.645 C 2 35.645 18.946 23.723000000000003 20.324 22.509000000000004 C 21.705000000000002 21.295000000000005 23.144000000000002 21.015000000000004 24 21.015000000000004 C 24.855999999999998 21.015000000000004 26.295 21.295000000000005 27.676000000000002 22.509000000000004 C 29.054 23.722 46 35.645 46 35.645 L 46 34.668000000000006 C 41.811 31.221 28.997 21.006 28.997 21.006 z" stroke-linecap="round" />
</g>
<g transform="matrix(1 0 0 1 0 3.64)" >
<path style="stroke: none; stroke-width: 1; stroke-dasharray: none; stroke-linecap: butt; stroke-dashoffset: 0; stroke-linejoin: miter; stroke-miterlimit: 4; fill: rgb(226,226,226); fill-rule: nonzero; opacity: 0.16;" transform=" translate(-24, -27.64)" d="M 28.997 21.375 C 28.997 21.375 24.820999999999998 19.383 24 19.383 C 23.179000000000002 19.383 19.001 21.377 19.001 21.377 C 19.001 21.377 7.511 30.31 2 34.897 L 2 35.899 C 2 35.899 18.946 24.092 20.324 22.878 C 21.705000000000002 21.664 23.144000000000002 21.384 24 21.384 C 24.855999999999998 21.384 26.295 21.664 27.676000000000002 22.878 C 29.054 24.092 46 35.859 46 35.859 L 46 34.961 C 41.811 31.515 28.997 21.375 28.997 21.375 z" stroke-linecap="round" />
</g>
<g transform="matrix(1 0 0 1 0 3.95)" >
<path style="stroke: none; stroke-width: 1; stroke-dasharray: none; stroke-linecap: butt; stroke-dashoffset: 0; stroke-linejoin: miter; stroke-miterlimit: 4; fill: rgb(223,223,223); fill-rule: nonzero; opacity: 0.3;" transform=" translate(-24, -27.95)" d="M 28.997 21.745 C 28.997 21.745 24.820999999999998 19.753 24 19.753 C 23.179000000000002 19.753 19.001 21.747 19.001 21.747 C 19.001 21.747 7.404 30.737 2 35.226 L 2 36.153 C 2 36.153 18.946 24.461 20.324 23.247 C 21.705000000000002 22.033 23.144000000000002 21.753 24 21.753 C 24.855999999999998 21.753 26.295 22.033 27.676000000000002 23.247 C 29.054 24.462 46 36.074 46 36.074 L 46 35.254999999999995 C 41.811 31.809 28.997 21.745 28.997 21.745 z" stroke-linecap="round" />
</g>
<g transform="matrix(1 0 0 1 0 4.27)" >
<path style="stroke: none; stroke-width: 1; stroke-dasharray: none; stroke-linecap: butt; stroke-dashoffset: 0; stroke-linejoin: miter; stroke-miterlimit: 4; fill: rgb(219,219,219); fill-rule: nonzero; opacity: 0.44;" transform=" translate(-24, -28.27)" d="M 28.997 22.115 C 28.997 22.115 24.820999999999998 20.122999999999998 24 20.122999999999998 C 23.179000000000002 20.122999999999998 19.001 22.116999999999997 19.001 22.116999999999997 C 19.001 22.116999999999997 7.298 31.164 2 35.556 L 2 36.407999999999994 C 2 36.407999999999994 18.946 24.830999999999996 20.324 23.616999999999994 C 21.705000000000002 22.402999999999995 23.144000000000002 22.122999999999994 24 22.122999999999994 C 24.855999999999998 22.122999999999994 26.295 22.402999999999995 27.676000000000002 23.616999999999994 C 29.054 24.831 46 36.289 46 36.289 L 46 35.549 C 41.811 32.102 28.997 22.115 28.997 22.115 z" stroke-linecap="round" />
</g>
<g transform="matrix(1 0 0 1 0 4.58)" >
<path style="stroke: none; stroke-width: 1; stroke-dasharray: none; stroke-linecap: butt; stroke-dashoffset: 0; stroke-linejoin: miter; stroke-miterlimit: 4; fill: rgb(215,215,215); fill-rule: nonzero; opacity: 0.58;" transform=" translate(-24, -28.58)" d="M 28.997 22.484 C 28.997 22.484 24.820999999999998 20.492 24 20.492 C 23.179000000000002 20.492 19.001 22.486 19.001 22.486 C 19.001 22.486 7.191 31.592 2 35.886 L 2 36.663000000000004 C 2 36.663000000000004 18.946 25.202000000000005 20.324 23.987000000000002 C 21.705000000000002 22.773000000000003 23.144000000000002 22.493000000000002 24 22.493000000000002 C 24.855999999999998 22.493000000000002 26.295 22.773000000000003 27.676000000000002 23.987000000000002 C 29.054 25.201 46 36.503 46 36.503 L 46 35.842 C 41.811 32.396 28.997 22.484 28.997 22.484 z" stroke-linecap="round" />
</g>
<g transform="matrix(1 0 0 1 0 4.89)" >
<path style="stroke: none; stroke-width: 1; stroke-dasharray: none; stroke-linecap: butt; stroke-dashoffset: 0; stroke-linejoin: miter; stroke-miterlimit: 4; fill: rgb(211,211,211); fill-rule: nonzero; opacity: 0.72;" transform=" translate(-24, -28.89)" d="M 28.997 22.854 C 28.997 22.854 24.820999999999998 20.862 24 20.862 C 23.179000000000002 20.862 19.001 22.855999999999998 19.001 22.855999999999998 C 19.001 22.855999999999998 7.085 32.019 2 36.215 L 2 36.917 C 2 36.917 18.946 25.571 20.324 24.357 C 21.705000000000002 23.143 23.144000000000002 22.863 24 22.863 C 24.855999999999998 22.863 26.295 23.143 27.676000000000002 24.357 C 29.054 25.57 46 36.718 46 36.718 L 46 36.136 C 41.811 32.689 28.997 22.854 28.997 22.854 z" stroke-linecap="round" />
</g>
<g transform="matrix(1 0 0 1 0 5.2)" >
<path style="stroke: none; stroke-width: 1; stroke-dasharray: none; stroke-linecap: butt; stroke-dashoffset: 0; stroke-linejoin: miter; stroke-miterlimit: 4; fill: rgb(208,208,208); fill-rule: nonzero; opacity: 0.86;" transform=" translate(-24, -29.2)" d="M 28.997 23.223 C 28.997 23.223 24.820999999999998 21.230999999999998 24 21.230999999999998 C 23.179000000000002 21.230999999999998 19.001 23.224999999999998 19.001 23.224999999999998 C 19.001 23.224999999999998 6.979 32.447 2 36.545 L 2 37.171 C 2 37.171 18.946 25.939999999999998 20.324 24.726 C 21.705000000000002 23.512 23.144000000000002 23.232 24 23.232 C 24.855999999999998 23.232 26.295 23.512 27.676000000000002 24.726 C 29.054 25.94 46 36.932 46 36.932 L 46 36.43 C 41.811 32.983 28.997 23.223 28.997 23.223 z" stroke-linecap="round" />
</g>
<g transform="matrix(1 0 0 1 0 5.51)" >
<path style="stroke: none; stroke-width: 1; stroke-dasharray: none; stroke-linecap: butt; stroke-dashoffset: 0; stroke-linejoin: miter; stroke-miterlimit: 4; fill: rgb(204,204,204); fill-rule: nonzero; opacity: 1;" transform=" translate(-24, -29.51)" d="M 28.997 23.593 C 28.997 23.593 24.820999999999998 21.601 24 21.601 C 23.179000000000002 21.601 19.001 23.595 19.001 23.595 C 19.001 23.595 6.872 32.874 2 36.874 L 2 37.425000000000004 C 2 37.425000000000004 18.946 26.309000000000005 20.324 25.095000000000006 C 21.705000000000002 23.881000000000007 23.144000000000002 23.601000000000006 24 23.601000000000006 C 24.855999999999998 23.601000000000006 26.295 23.881000000000007 27.676000000000002 25.095000000000006 C 29.054 26.31 46 37.147 46 37.147 L 46 36.724 C 41.811 33.277 28.997 23.593 28.997 23.593 z" stroke-linecap="round" />
</g>
<g transform="matrix(1 0 0 1 0 6.85)" >
<linearGradient id="SVGID_eLiPB0jyxGhmUZCqmxXJUc_4" gradientUnits="userSpaceOnUse" gradientTransform="matrix(1 0 0 1 0 0)" x1="24" y1="28.298" x2="24" y2="42.612">
<stop offset="0%" style="stop-color:rgb(239,234,234);stop-opacity: 1"/>
<stop offset="12.3%" style="stop-color:rgb(233,231,231);stop-opacity: 1"/>
<stop offset="35.699999999999996%" style="stop-color:rgb(230,230,230);stop-opacity: 1"/>
<stop offset="50.9%" style="stop-color:rgb(223,223,223);stop-opacity: 1"/>
<stop offset="73.3%" style="stop-color:rgb(203,203,203);stop-opacity: 1"/>
<stop offset="99.9%" style="stop-color:rgb(171,171,171);stop-opacity: 1"/>
</linearGradient>
<path style="stroke: none; stroke-width: 1; stroke-dasharray: none; stroke-linecap: butt; stroke-dashoffset: 0; stroke-linejoin: miter; stroke-miterlimit: 4; fill: url(#SVGID_eLiPB0jyxGhmUZCqmxXJUc_4); fill-rule: nonzero; opacity: 1;" transform=" translate(-24, -30.85)" d="M 46 36.36 C 46 36.36 29.054 24.438 27.676 23.224 C 26.294999999999998 22.01 24.855999999999998 21.73 24 21.73 C 23.144000000000002 21.73 21.705 22.01 20.323999999999998 23.224 C 18.946 24.437 2 36.36 2 36.36 L 2 38.98 C 2 39.532 2.448 39.98 3 39.98 L 45 39.98 C 45.552 39.98 46 39.532 46 38.98 L 46 36.36 z" stroke-linecap="round" />
</g>
<g transform="matrix(1 0 0 1 0 -3.64)" >
<path style="stroke: none; stroke-width: 1; stroke-dasharray: none; stroke-linecap: butt; stroke-dashoffset: 0; stroke-linejoin: miter; stroke-miterlimit: 4; fill: rgb(226,226,226); fill-rule: nonzero; opacity: 0.143;" transform=" translate(-24, -20.36)" d="M 23.964 27.673 C 23.107999999999997 27.673 21.668999999999997 27.392999999999997 20.287999999999997 26.179 C 18.91 24.965 2 11.098 2 11.098 L 2 11.641 C 7.801 16.804000000000002 18.138 26.839 19.137 27.718000000000004 C 21.182000000000002 29.516000000000005 23.152 29.663000000000004 23.973 29.663000000000004 C 24.793999999999997 29.663000000000004 26.846999999999998 29.616000000000003 28.894 27.816000000000003 C 29.89 26.937 40.373 16.891 46 11.62 L 46 11.05 C 46 11.05 29.017 24.965 27.64 26.179000000000002 C 26.259 27.393 24.82 27.673 23.964 27.673 z" stroke-linecap="round" />
</g>
<g transform="matrix(1 0 0 1 0 -4.02)" >
<path style="stroke: none; stroke-width: 1; stroke-dasharray: none; stroke-linecap: butt; stroke-dashoffset: 0; stroke-linejoin: miter; stroke-miterlimit: 4; fill: rgb(223,223,223); fill-rule: nonzero; opacity: 0.286;" transform=" translate(-24, -19.98)" d="M 23.927 27.295 C 23.070999999999998 27.295 21.631999999999998 27.015 20.250999999999998 25.801000000000002 C 18.873 24.586 2 10.775 2 10.775 L 2 11.272 C 7.801 16.435000000000002 18.272 26.497 19.27 27.377000000000002 C 21.314999999999998 29.175000000000004 23.124 29.274 23.945 29.274 C 24.766000000000002 29.274 26.742 29.373 28.789 27.574 C 29.786 26.695 40.373 16.503 46 11.231 L 46 10.677999999999999 C 46 10.677999999999999 28.981 24.586 27.603 25.799999999999997 C 26.222 27.015 24.783 27.295 23.927 27.295 z" stroke-linecap="round" />
</g>
<g transform="matrix(1 0 0 1 0 -4.4)" >
<path style="stroke: none; stroke-width: 1; stroke-dasharray: none; stroke-linecap: butt; stroke-dashoffset: 0; stroke-linejoin: miter; stroke-miterlimit: 4; fill: rgb(219,219,219); fill-rule: nonzero; opacity: 0.429;" transform=" translate(-24, -19.6)" d="M 23.891 26.916 C 23.034999999999997 26.916 21.595999999999997 26.636 20.214999999999996 25.422 C 18.837 24.208 2 10.452 2 10.452 L 2 10.902 C 7.801 16.064999999999998 18.405 26.155 19.403 27.034 C 21.448 28.832 23.096 28.884 23.918 28.884 C 24.74 28.884 26.637999999999998 29.13 28.685 27.331 C 29.681 26.453 40.373 16.114 46 10.843 L 46 10.308 C 46 10.308 28.945 24.208 27.567 25.422 C 26.186 26.636 24.747 26.916 23.891 26.916 z" stroke-linecap="round" />
</g>
<g transform="matrix(1 0 0 1 0 -4.77)" >
<path style="stroke: none; stroke-width: 1; stroke-dasharray: none; stroke-linecap: butt; stroke-dashoffset: 0; stroke-linejoin: miter; stroke-miterlimit: 4; fill: rgb(215,215,215); fill-rule: nonzero; opacity: 0.571;" transform=" translate(-24, -19.23)" d="M 23.854 26.538 C 22.997999999999998 26.538 21.558999999999997 26.258 20.177999999999997 25.044 C 18.8 23.83 2 10.129 2 10.129 L 2 10.533 C 7.801 15.696 18.538 25.813 19.536 26.692 C 21.581000000000003 28.490000000000002 23.069000000000003 28.494 23.89 28.494 C 24.711 28.494 26.532 28.887 28.579 27.088 C 29.576 26.211 40.373 15.725 46 10.454 L 46 9.937 C 46 9.937 28.908 23.83 27.53 25.043999999999997 C 26.149 26.258 24.71 26.538 23.854 26.538 z" stroke-linecap="round" />
</g>
<g transform="matrix(1 0 0 1 0 -5.13)" >
<path style="stroke: none; stroke-width: 1; stroke-dasharray: none; stroke-linecap: butt; stroke-dashoffset: 0; stroke-linejoin: miter; stroke-miterlimit: 4; fill: rgb(211,211,211); fill-rule: nonzero; opacity: 0.714;" transform=" translate(-24, -18.87)" d="M 23.818 26.16 C 22.962 26.16 21.523000000000003 25.88 20.142000000000003 24.666 C 18.764 23.452 2 9.806 2 9.806 L 2 10.164 C 7.801 15.327 18.671 25.472 19.67 26.351 C 21.715000000000003 28.149 23.042 28.105999999999998 23.864 28.105999999999998 C 24.686 28.105999999999998 26.429000000000002 28.645999999999997 28.476 26.846999999999998 C 29.472 25.968 40.373 15.336 46 10.065 L 46 9.566 C 46 9.566 28.872 23.451999999999998 27.494 24.666 C 26.113 25.88 24.674 26.16 23.818 26.16 z" stroke-linecap="round" />
</g>
<g transform="matrix(1 0 0 1 0 -5.48)" >
<path style="stroke: none; stroke-width: 1; stroke-dasharray: none; stroke-linecap: butt; stroke-dashoffset: 0; stroke-linejoin: miter; stroke-miterlimit: 4; fill: rgb(208,208,208); fill-rule: nonzero; opacity: 0.857;" transform=" translate(-24, -18.52)" d="M 23.781 25.782 C 22.924999999999997 25.782 21.485999999999997 25.502 20.104999999999997 24.288 C 18.727 23.073 2 9.483 2 9.483 L 2 9.795 C 7.801 14.958 18.805 25.130000000000003 19.803 26.009 C 21.848 27.807000000000002 23.015 27.716 23.836000000000002 27.716 C 24.657000000000004 27.716 26.324 28.403000000000002 28.371000000000002 26.604 C 29.367 25.726 40.373 14.947 46 9.676 L 46 9.195 C 46 9.195 28.835 23.073 27.457 24.287 C 26.076 25.502 24.637 25.782 23.781 25.782 z" stroke-linecap="round" />
</g>
<g transform="matrix(1 0 0 1 0 -5.83)" >
<path style="stroke: none; stroke-width: 1; stroke-dasharray: none; stroke-linecap: butt; stroke-dashoffset: 0; stroke-linejoin: miter; stroke-miterlimit: 4; fill: rgb(204,204,204); fill-rule: nonzero; opacity: 1;" transform=" translate(-24, -18.17)" d="M 23.745 25.403 C 22.889 25.403 21.450000000000003 25.122999999999998 20.069000000000003 23.909 C 18.691 22.695 2 9.16 2 9.16 L 2 9.426 C 7.801 14.589 18.938 24.789 19.936 25.668 C 21.981 27.466 22.987000000000002 27.328 23.808 27.328 C 24.628999999999998 27.328 26.219 28.162 28.265 26.363 C 29.262 25.484 40.373 14.558 46 9.287 L 46 8.824 C 46 8.824 28.799 22.695 27.421 23.909 C 26.04 25.124 24.601 25.403 23.745 25.403 z" stroke-linecap="round" />
</g>
<g transform="matrix(1 0 0 1 0 -6.88)" >
<linearGradient id="SVGID_eLiPB0jyxGhmUZCqmxXJUd_5" gradientUnits="userSpaceOnUse" gradientTransform="matrix(1 0 0 1 0 0)" x1="24" y1="17.064" x2="24" y2="-2.894">
<stop offset="0%" style="stop-color:rgb(255,255,255);stop-opacity: 1"/>
<stop offset="57.699999999999996%" style="stop-color:rgb(230,230,230);stop-opacity: 1"/>
<stop offset="66.7%" style="stop-color:rgb(223,223,223);stop-opacity: 1"/>
<stop offset="79.9%" style="stop-color:rgb(203,203,203);stop-opacity: 1"/>
<stop offset="95.6%" style="stop-color:rgb(171,171,171);stop-opacity: 1"/>
</linearGradient>
<path style="stroke: none; stroke-width: 1; stroke-dasharray: none; stroke-linecap: butt; stroke-dashoffset: 0; stroke-linejoin: miter; stroke-miterlimit: 4; fill: url(#SVGID_eLiPB0jyxGhmUZCqmxXJUd_5); fill-rule: nonzero; opacity: 1;" transform=" translate(-24, -17.13)" d="M 45 8 L 3 8 C 2.448 8 2 8.448 2 9 L 2 9.62 C 2 9.62 18.946 23.542 20.324 24.756 C 21.705000000000002 25.97 23.144000000000002 26.25 24 26.25 C 24.855999999999998 26.25 26.295 25.97 27.676000000000002 24.756 C 29.054 23.542 46 9.62 46 9.62 L 46 9 C 46 8.448 45.552 8 45 8 z" stroke-linecap="round" />
</g>
<g transform="matrix(1 0 0 1 0 0)" >
<radialGradient id="SVGID_eLiPB0jyxGhmUZCqmxXJUe_6" gradientUnits="userSpaceOnUse" gradientTransform="matrix(1 0 0 1 0 0)" cx="20.573" cy="20.527" r="11.183" fx="20.573" fy="20.527">
<stop offset="0%" style="stop-color:rgb(255,118,102);stop-opacity: 1"/>
<stop offset="12.6%" style="stop-color:rgb(251,108,89);stop-opacity: 1"/>
<stop offset="71.39999999999999%" style="stop-color:rgb(236,64,35);stop-opacity: 1"/>
<stop offset="100%" style="stop-color:rgb(230,47,14);stop-opacity: 1"/>
</radialGradient>
<path style="stroke: none; stroke-width: 1; stroke-dasharray: none; stroke-linecap: butt; stroke-dashoffset: 0; stroke-linejoin: miter; stroke-miterlimit: 4; fill: url(#SVGID_eLiPB0jyxGhmUZCqmxXJUe_6); fill-rule: nonzero; opacity: 1;" transform=" translate(-24, -24)" d="M 28.091 16.636 C 25.656000000000002 16.636 24 18.272 24 18.272 C 24 18.272 22.353 16.636 19.909 16.636 C 17.198 16.636 15 18.834 15 21.544999999999998 C 15 26.453999999999997 24 31.363 24 31.363 C 24 31.363 33 26.454 33 21.545 C 33 18.834 30.802 16.636 28.091 16.636 z" stroke-linecap="round" />
</g>
</g>
</g>
</svg>